<svg xmlns="http://www.w3.org/2000/svg" width="150" height="43.672" viewBox="0 0 150 43.672"><circle fill="#333" cx="19.312" cy="19.313" r="19.312"/><path fill="#FFF" d="M22.972 2.89L8.082 22.327h8.686m-1.115 13.41l14.89-19.44h-8.686"/><g fill="#333"><path d="M48.323 25.294H51v-12.69h-2.678v-1.592H62.05v5.283h-1.16c-1.012-3.088-1.422-3.69-3.28-3.69h-4.125v5.717h1.375c1.785 0 2.123-.29 2.46-2.46h1.28v6.417h-1.278c-.29-2.27-.676-2.61-2.46-2.61h-1.376v5.62h2.943v1.592h-8.11V25.29zm14.5-1.134c0-.772.24-1.448.82-2.027.893-.893 2.1-1.182 4.1-1.47 1.424-.22 1.69-.242 1.69-.677v-1.134c0-1.424-.676-1.954-2.196-1.954-.724 0-1.278.145-1.857.458.41.193.7.676.7 1.183 0 .72-.507 1.35-1.4 1.35-.94 0-1.47-.7-1.47-1.4 0-1.76 2.05-2.82 4.535-2.82 2.51 0 3.956 1.03 3.956 3.35v5.594c0 .554.17.795.75.795.34 0 .63-.338.87-.868l.847.507c-.58 1.35-1.4 1.905-2.485 1.905-1.013 0-1.98-.58-1.98-1.93h-.12c-.604 1.18-2.123 1.978-3.546 1.978-2.027 0-3.21-1.184-3.21-2.848zm6.61-.917v-1.906c-.217.097-.482.145-1.085.24-2.34.363-3.064.652-3.064 2.1 0 1.06.555 1.785 1.785 1.785 1.08 0 2.36-.94 2.36-2.22zm5.017 2.05h1.762V17.43h-1.76v-1.593h3.98v2.557c.554-1.857 2-2.7 3.256-2.7 1.23 0 1.93.843 1.93 1.88 0 .845-.627 1.568-1.447 1.568-.84 0-1.52-.506-1.52-1.423 0-.127.03-.27.05-.41-1.082-.05-1.83 1.18-2.22 2.63v5.35h2.1v1.59h-6.13v-1.59zm9.917-1.133c0-.772.24-1.448.82-2.027.893-.893 2.1-1.182 4.1-1.47 1.425-.22 1.69-.242 1.69-.677v-1.134c0-1.424-.676-1.954-2.196-1.954-.72 0-1.272.145-1.85.458.41.193.7.676.7 1.183 0 .72-.508 1.35-1.4 1.35-.94 0-1.47-.7-1.47-1.4 0-1.76 2.05-2.82 4.533-2.82 2.51 0 3.956 1.03 3.956 3.35v5.594c0 .554.17.795.747.795.338 0 .628-.338.87-.868l.843.507c-.58 1.35-1.4 1.905-2.485 1.905-1.013 0-1.978-.58-1.978-1.93h-.12c-.604 1.18-2.123 1.978-3.547 1.978-2.026 0-3.208-1.184-3.208-2.848zm6.61-.917v-1.906c-.217.097-.482.145-1.085.24-2.34.363-3.064.652-3.064 2.1 0 1.06.556 1.785 1.785 1.785 1.085 0 2.364-.94 2.364-2.22zm6.73 2.677c-1.06-1.06-1.566-2.677-1.566-4.39 0-1.784.63-3.618 1.67-4.655.796-.796 1.81-1.23 3.016-1.23 1.617 0 2.68.797 3.378 1.93V12.05h-1.832v-1.737h4.103v14.98h1.615v1.593h-3.836v-2.268c-.82 1.664-2.15 2.484-3.62 2.484-1.135 0-2.196-.457-2.92-1.18zm6.54-4.583c0-2.195-.87-4.173-2.823-4.173-1.762 0-2.774 1.544-2.774 4.173 0 2.726 1.278 4.246 2.774 4.246 1.447 0 2.822-1.544 2.822-4.246zm5.26 2.823c0-.772.24-1.448.82-2.027.892-.893 2.1-1.182 4.1-1.47 1.424-.22 1.69-.242 1.69-.677v-1.134c0-1.424-.677-1.954-2.197-1.954-.724 0-1.278.145-1.857.458.41.193.7.676.7 1.183 0 .72-.507 1.35-1.4 1.35-.94 0-1.47-.7-1.47-1.4 0-1.76 2.05-2.82 4.534-2.82 2.51 0 3.956 1.03 3.956 3.35v5.594c0 .554.17.795.748.795.34 0 .63-.338.87-.868l.85.507c-.58 1.35-1.4 1.905-2.485 1.905-1.013 0-1.98-.58-1.98-1.93h-.12c-.602 1.18-2.12 1.978-3.545 1.978-2.027 0-3.21-1.184-3.21-2.848zm6.61-.917v-1.906c-.22.097-.484.145-1.087.24-2.34.363-3.064.652-3.064 2.1 0 1.06.556 1.785 1.785 1.785 1.09 0 2.37-.94 2.37-2.22z"/><path d="M123.498 28.84c0 .266-.097.604-.17.748.918-.218 1.545-.7 2.317-2.75l-3.812-9.41h-1.544v-1.59h5.832v1.59h-1.882l2.58 6.95 2.73-6.95h-1.544v-1.59h4.654v1.59h-1.42l-3.837 9.192c-1.447 3.426-2.87 4.294-4.535 4.294-1.425 0-2.317-.747-2.317-1.905 0-.82.65-1.57 1.52-1.57.897 0 1.427.7 1.427 1.4z"/></g></svg>